<svg xmlns="http://www.w3.org/2000/svg" width="16" height="16" viewBox="0 0 16 16"><g fill="none"><path fill="url(#fluentColorClipboardTask160)" d="M3 3.5A1.5 1.5 0 0 1 4.5 2h7A1.5 1.5 0 0 1 13 3.5v10a1.5 1.5 0 0 1-1.5 1.5h-7A1.5 1.5 0 0 1 3 13.5z"/><path fill="url(#fluentColorClipboardTask163)" fill-opacity="0.7" d="M3 3.5A1.5 1.5 0 0 1 4.5 2h7A1.5 1.5 0 0 1 13 3.5v10a1.5 1.5 0 0 1-1.5 1.5h-7A1.5 1.5 0 0 1 3 13.5z"/><path fill="url(#fluentColorClipboardTask164)" fill-opacity="0.4" d="M3 3.5A1.5 1.5 0 0 1 4.5 2h7A1.5 1.5 0 0 1 13 3.5v10a1.5 1.5 0 0 1-1.5 1.5h-7A1.5 1.5 0 0 1 3 13.5z"/><path fill="url(#fluentColorClipboardTask161)" d="M5 2.5A1.5 1.5 0 0 0 6.5 4h3a1.5 1.5 0 0 0 0-3h-3A1.5 1.5 0 0 0 5 2.5"/><path fill="url(#fluentColorClipboardTask162)" fill-opacity="0.9" d="M10.854 7.854a.5.5 0 0 0-.708-.708L7.5 9.793L6.354 8.646a.5.5 0 1 0-.708.708l1.5 1.5a.5.5 0 0 0 .708 0z"/><defs><linearGradient id="fluentColorClipboardTask160" x1="3" x2="13.44" y1="3.3" y2="14.593" gradientUnits="userSpaceOnUse"><stop stop-color="#36dff1"/><stop offset="1" stop-color="#0094f0"/></linearGradient><linearGradient id="fluentColorClipboardTask161" x1="8" x2="8" y1="1" y2="4" gradientUnits="userSpaceOnUse"><stop stop-color="#ffe06b"/><stop offset="1" stop-color="#fab500"/></linearGradient><linearGradient id="fluentColorClipboardTask162" x1="12.833" x2="6.283" y1="13.667" y2="4.063" gradientUnits="userSpaceOnUse"><stop stop-color="#9deaff"/><stop offset="1" stop-color="#fff"/></linearGradient><radialGradient id="fluentColorClipboardTask163" cx="0" cy="0" r="1" gradientTransform="matrix(0 4.16204 -4.27976 0 8 1.278)" gradientUnits="userSpaceOnUse"><stop stop-color="#0a1852"/><stop offset="1" stop-color="#0a1852" stop-opacity="0"/></radialGradient><radialGradient id="fluentColorClipboardTask164" cx="0" cy="0" r="1" gradientTransform="matrix(0 2.02381 -4.04762 0 8 2.69)" gradientUnits="userSpaceOnUse"><stop stop-color="#0a1852"/><stop offset="1" stop-color="#0a1852" stop-opacity="0"/></radialGradient></defs></g></svg>